<?xml version="1.0" standalone="no"?>
<!DOCTYPE svg PUBLIC "-//W3C//DTD SVG 20010904//EN"
 "http://www.w3.org/TR/2001/REC-SVG-20010904/DTD/svg10.dtd">
<svg version="1.0" xmlns="http://www.w3.org/2000/svg"
 viewBox="0 0 2600.000000 2604.000000"
 preserveAspectRatio="xMidYMid meet">
<metadata>
Created by potrace 1.13, written by Peter Selinger 2001-2015
</metadata>
<g transform="translate(0.000000,2604.000000) scale(0.100000,-0.100000)"
fill="#8F55D9" stroke="none">
<path d="M10680 23504 c-179 -27 -288 -61 -508 -164 -191 -88 -287 -111 -494
-117 -197 -6 -274 2 -598 63 -410 78 -560 98 -875 114 -541 28 -1129 -45
-1850 -230 -1076 -275 -1749 -550 -2215 -905 -373 -285 -694 -744 -863 -1235
-177 -514 -196 -1102 -51 -1545 96 -292 260 -557 494 -799 244 -252 430 -373
892 -580 439 -196 905 -362 1208 -430 63 -14 216 -39 340 -56 288 -39 433 -64
552 -95 261 -67 420 -171 494 -320 55 -111 57 -189 11 -465 -69 -411 -96 -705
-104 -1130 -24 -1309 273 -2707 918 -4323 153 -382 271 -629 451 -937 121
-208 189 -316 488 -770 315 -478 328 -498 589 -923 263 -426 363 -602 471
-822 176 -359 268 -650 301 -956 18 -162 6 -445 -25 -610 -64 -341 -164 -642
-311 -944 -150 -306 -287 -467 -486 -574 -98 -52 -178 -75 -346 -101 -363 -55
-456 -116 -514 -337 -27 -102 -29 -247 -6 -325 44 -147 181 -209 348 -159 41
13 144 56 230 97 196 93 257 114 331 114 70 0 115 -21 238 -110 268 -194 391
-228 552 -153 125 59 394 278 584 475 410 427 658 906 824 1593 53 218 87 386
170 836 39 211 84 452 100 534 29 148 49 290 91 650 11 99 29 230 39 290 10
61 23 157 30 215 19 183 46 240 113 240 70 0 83 -87 62 -410 -8 -135 -27 -456
-40 -715 -31 -583 -41 -724 -66 -895 -44 -302 -43 -484 2 -605 39 -104 110
-158 206 -159 190 -1 298 289 353 949 15 169 14 606 0 810 -24 351 -71 818
-90 904 -24 108 -25 159 -6 206 43 102 128 -16 186 -258 102 -422 127 -1066
64 -1612 -60 -523 -178 -1040 -310 -1362 -52 -126 -137 -288 -189 -358 -63
-85 -168 -187 -250 -244 -38 -27 -151 -95 -250 -151 -99 -57 -204 -118 -233
-137 -29 -18 -118 -65 -199 -105 -221 -109 -293 -190 -293 -332 0 -77 17 -123
63 -173 76 -83 195 -126 352 -127 169 -1 220 22 541 247 191 133 317 159 427
86 25 -16 79 -73 122 -129 82 -106 120 -140 189 -171 110 -48 224 -34 497 61
338 118 462 121 571 15 30 -30 67 -57 83 -61 36 -9 123 11 182 42 134 71 272
279 303 457 16 92 -2 169 -79 334 -84 181 -94 221 -89 362 3 99 8 124 31 174
15 32 40 76 57 97 64 81 207 150 308 150 75 0 144 -24 306 -104 215 -106 345
-145 716 -216 118 -23 294 -57 390 -75 365 -72 598 -95 1200 -121 212 -9 386
-17 388 -18 1 -2 -3 -40 -9 -85 -16 -121 -8 -285 17 -341 41 -91 127 -149 220
-150 58 0 124 21 238 76 97 46 173 55 242 29 24 -9 84 -45 132 -79 154 -111
199 -127 366 -127 170 0 339 41 407 98 16 14 43 51 59 83 70 139 160 147 249
20 51 -73 74 -84 154 -78 119 10 219 86 277 211 80 172 79 271 -9 540 -69 212
-76 348 -22 450 15 29 144 216 287 417 499 700 680 975 899 1359 375 661 580
1291 660 2031 22 202 31 658 16 850 -43 558 -129 891 -370 1440 -23 52 -151
313 -285 580 -389 779 -440 907 -671 1680 -158 531 -238 749 -412 1135 -120
263 -166 378 -313 763 -207 548 -301 771 -426 1010 -193 371 -342 547 -759
900 -308 262 -361 311 -795 747 -382 383 -534 525 -785 730 -579 475 -1035
736 -1424 815 -154 31 -261 39 -611 45 -574 11 -737 38 -1005 172 -216 107
-418 257 -785 583 -187 166 -253 220 -539 450 -211 168 -364 344 -446 514 -83
172 -86 203 -74 766 3 187 2 224 -14 280 -33 116 -75 189 -158 272 -98 100
-177 139 -290 146 -151 9 -244 -37 -388 -191 -251 -268 -334 -337 -435 -363
-24 -6 -27 -4 -24 12 2 10 19 28 38 40 70 45 104 80 129 134 21 47 25 70 26
155 0 93 -2 105 -33 169 -60 127 -139 199 -252 229 -59 17 -160 27 -200 21z
m-1623 -1359 c60 -25 102 -63 131 -118 24 -46 27 -63 27 -147 0 -77 -4 -104
-22 -143 -36 -78 -78 -124 -147 -157 -102 -50 -230 -43 -328 19 -47 30 -94 89
-118 151 -23 56 -18 168 10 225 41 84 128 153 224 176 57 13 185 10 223 -6z
m-4885 -844 c33 -29 33 -29 38 -148 6 -113 7 -120 38 -163 18 -25 48 -67 67
-94 40 -55 45 -101 17 -136 -25 -31 -56 -22 -120 35 -119 107 -151 185 -152
373 0 156 37 200 112 133z"/>
</g>
</svg>
