<svg width="11" height="9" viewBox="0 0 11 9" fill="none" xmlns="http://www.w3.org/2000/svg">
<path d="M0 0.68381C0 0.305577 0.351116 0 0.785714 0H10.2143C10.6489 0 11 0.305577 11 0.68381C11 1.06204 10.6489 1.36762 10.2143 1.36762H0.785714C0.351116 1.36762 0 1.06204 0 0.68381ZM0 4.10286C0 3.72462 0.351116 3.41905 0.785714 3.41905H10.2143C10.6489 3.41905 11 3.72462 11 4.10286C11 4.48109 10.6489 4.78667 10.2143 4.78667H0.785714C0.351116 4.78667 0 4.48109 0 4.10286ZM11 7.5219C11 7.90014 10.6489 8.20571 10.2143 8.20571H0.785714C0.351116 8.20571 0 7.90014 0 7.5219C0 7.14367 0.351116 6.8381 0.785714 6.8381H10.2143C10.6489 6.8381 11 7.14367 11 7.5219Z" fill="black"/>
</svg>
